# xmcd
#
# Track frame offsets:
#	150
#	3908
#	24646
#	38880
#	55284
#	77295
#	90979
#	112814
#	129213
#	146730
#	151399
#	167995
#	170820
#	182174
#
# Disc length: 2488 seconds
#
# Revision: 0
# Processed by: cddbd v1.5.1PL0 Copyright (c) Steve Scherf et al.
# Submitted via: dBpowerAMP V4.0
#
DISCID=a809b60e
DTITLE=Salem - From the Riverbank
DYEAR=2005
DGENRE=Country
TTITLE0=Prologue
TTITLE1=Melkhisedek's Wedding
TTITLE2=The Anatomy of Pain
TTITLE3=From a Jack to a King
TTITLE4=My Wild River
TTITLE5=Llorona don't Cry
TTITLE6=The Minstrel Ape
TTITLE7=The War is Kind
TTITLE8=Something keeps you Going
TTITLE9=Hunger is Gone
TTITLE10=I Know who you Are
TTITLE11=The Vineyard
TTITLE12=The End
TTITLE13=Epilogue
EXTD=
EXTT0=
EXTT1=
EXTT2=
EXTT3=
EXTT4=
EXTT5=
EXTT6=
EXTT7=
EXTT8=
EXTT9=
EXTT10=
EXTT11=
EXTT12=
EXTT13=
PLAYORDER=
